<svg xmlns="http://www.w3.org/2000/svg" xmlns:xlink="http://www.w3.org/1999/xlink" width="92" height="128" xmlns:v="https://vecta.io/nano"><style><![CDATA[.O{fill:#fff}.P{fill-rule:nonzero}.Q{stroke:#f68712}.R{stroke-width:.5}.S{stroke:#7b7979}.T{stroke-width:.527}.U{stroke-linejoin:round}]]></style><defs><path id="A" d="M.378 127.72h91.21V.42H.378"/><path id="B" d="M.574 274.793V.613h348.372v274.18"/><path d="M20.495.086l5.844 26.702c-7.384-.544-17.927.577-22.64 2.36L.498 14.502C-.573 9.639 4.151 4.885 9.503 2.987 14.796.82 20.529.24 20.495.086" id="C"/><path id="D" d="M.958.972l-.175.616.433.616.177-.616"/><path id="E" d="M.958.972L.03.509l1.181 1.679.481-1.679"/><path id="F" d="M.958.972l-.177.616.435.616.175-.616"/><path id="G" d="M.958.972l-.177.616.435.616.177-.616"/><path id="H" d="M.958.972L.031.511l1.181 1.677.479-1.677"/><path id="I" d="M.958.972l-.175.616.433.616.175-.616"/><path id="J" d="M.958.972L.03.511l1.183 1.677.479-1.677"/><path id="K" d="M.958.972l-.177.616.433.616.177-.616"/><path id="L" d="M.958.972L.03.509l1.181 1.677.481-1.677"/></defs><g transform="matrix(1 0 0 -1 0 128)" fill="none" fill-rule="evenodd"><mask id="M" class="O"><use xlink:href="#A"/></mask><g mask="url(#M)"><g transform="translate(6.799 -156.954)"><mask id="N" class="O"><use xlink:href="#B"/></mask><g mask="url(#N)"><g transform="translate(-.216 167.253)"><g class="P"><g fill="#4f4c4d"><path d="M.942 40.472h.588c.807 0 1.098-.333 1.1-1.334v-5.421c-.002-3.128 1.025-4.441 3.354-4.441 2.363 0 3.245 1.275 3.245 4.291v6.904h.639c.697 0 1.045-.407 1.047-1.241l-.003-5.513c0-3.831-1.759-6.015-5.04-6.015-3.298 0-4.927 2.147-4.93 5.865m18.657-5.68c-.874 0-1.647.484-2.66 2.544l-2.026 4.135c-.394.812-.704 1.267-1.056 1.608l-.002-8.287h-.533c-.41 0-.719.312-.719.882v8.798h.62c1.124 0 1.885-.781 2.449-1.933l2.026-4.151c.365-.74.661-1.476 1.083-2.005v8.075h.535a.67.67 0 0 0 .676-.681l-.001-8.985m2.561 0c-.492 0-.843.283-.843.951v8.715h.617c.338 0 .69-.271.69-.656v-9.01m5.607-.071H28.3c-.24 0-.564.184-.829.639-1.564 2.645-2.705 6.155-3.211 9.097h.564a.99.99 0 0 0 .928-.781c.364-1.919 1.367-5.275 2.492-7.307 1.056 2.075 2.225 5.543 2.63 8.088h.622c.321 0 .561-.256.561-.512a2.09 2.09 0 0 0-.041-.412c-.551-2.799-2.393-7.178-3.393-8.812m9.361 0h-1.183c-2.393 0-3.476 1.392-3.477 4.022l.001 1.749a12.69 12.69 0 0 0 .325 2.614c.223.939.578 1.351 1.208 1.351h4.995l.003-.525c0-.342-.212-.669-.93-.669h-3.969c-.195-.781-.335-1.931-.337-2.942h4.152v-.414c0-.381-.253-.695-.831-.695h-3.32v-.709c0-1.948.717-2.602 2.618-2.602h.731c.717 0 1.351.142 1.802.27v-.37c0-.668-.226-1.08-1.788-1.08m6.617 8.671h-.719c-.338 0-.746-.057-1.168-.156l-.002-3.1a10.97 10.97 0 0 1 1.73-.141c1.015 0 2.086.455 2.084 1.691 0 1.322-.886 1.706-1.926 1.706zm3.111-8.643c-.535 0-.858.24-1.059.726l-.716 1.734c-.591 1.421-1.013 1.591-1.605 1.634-.602.043-1.295.129-1.62.199l.002-4.25h-.481c-.547 0-.814.283-.812.826l-.002 8.47a7.81 7.81 0 0 0 2.422.443h.857c1.926 0 3.124-.982 3.124-2.645 0-1.535-1.01-2.331-2.235-2.501.971-.314 1.266-1.123 1.489-1.65l.876-2.074c.11-.256.321-.627.447-.769v-.071l-.687-.072m1.955 1.821l.002.623h.071c.575-.781 1.673-1.32 2.898-1.32 1.647 0 2.167.611 2.167 1.578.003 1.009-.52 1.378-2.49 1.82-1.873.411-2.788 1.036-2.788 2.416 0 1.65 1.38 2.913 3.631 2.913 1.774 0 2.745-.91 2.745-1.79l-.002-.584h-.068c-.605.767-1.394 1.152-2.745 1.152-1.409 0-2.211-.554-2.211-1.492 0-.91.422-1.21 2.325-1.65 1.351-.314 2.942-1.066 2.942-2.644 0-1.606-1.155-2.941-3.603-2.941-1.368 0-2.872.824-2.874 1.919m9.234-1.778c-.492 0-.843.283-.843.951v8.715h.619c.338 0 .692-.271.692-.656l-.003-9.01m7.741 8.487h-2.252v-8.487h-.478c-.549 0-.831.185-.831.826v7.661h-2.915l.002.482c0 .369.226.711.818.711h6.403v-.498a.79.79 0 0 0-.746-.695m4.124 2.316c.236.513.704 1.009 1.052 1.365.496.498.862.582 1.185.582.381 0 .578-.256.578-.568 0-.412-.28-.711-.901-.994-.901-.412-1.322-.47-1.69-.47h-.226l.002.086zm1.984-10.873h-1.181c-2.395 0-3.476 1.392-3.476 4.022v1.747a12.71 12.71 0 0 0 .323 2.616c.224.937.575 1.351 1.21 1.351h4.997v-.527c0-.342-.214-.669-.928-.669H70.19c-.197-.781-.338-1.931-.338-2.941h4.152l.002-.414c-.002-.383-.255-.695-.831-.695h-3.323v-.711c0-1.948.717-2.601 2.618-2.601h.736c.714 0 1.348.142 1.797.27v-.369c0-.668-.224-1.08-1.786-1.08M9.363 23.569c-.646.98-1.803 1.306-2.84 1.306-2.502 0-4.169-1.77-4.169-4.261.002-3.213 1.854-4.844 4.236-4.844 1.225 0 2.145.429 2.774 1.15h.087l-.002-.482c0-1.116-1.141-2.13-3.165-2.13-3.028 0-5.496 2.459-5.494 6.05-.002 3.074 2.075 5.979 5.716 5.979 1.905 0 2.976-1.184 2.976-2.165v-.603m4.163-1.196c-.836-1.505-1.333-2.892-1.79-4.554h3.58c-.469 1.689-1.016 3.141-1.79 4.554zm3.332-7.891c-.508 0-.744.225-.823.632l-.418 1.744H11.58l-.535-2.376h-.456c-.381 0-.537.17-.537.58.002 1.239 1.764 6.703 3.136 8.392h.393c.498 0 .823-.33 1.202-1.002.785-1.387 2.182-5.069 2.626-7.97"/><path d="M22.748 22.359h-2.091v-7.877h-.444c-.51 0-.772.172-.772.766v7.112h-2.703v.45c0 .343.209.659.758.659h5.945l-.002-.462c.002-.251-.286-.647-.692-.647m8.273-7.879c-.365 0-.784.276-.784.884v3.246h-4.482v-4.13h-.443c-.352 0-.759.263-.759.884l.002 8.089h.637c.275 0 .563-.211.563-.606V19.72h4.482l.002 3.734h.573c.314 0 .614-.251.614-.606l-.002-8.367m5.315 7.997c-1.686 0-2.757-1.109-2.757-3.392 0-2.321.981-3.629 2.9-3.629 1.725 0 2.759 1.32 2.757 3.406.002 2.402-.901 3.615-2.9 3.615zm0-8.128c-2.145 0-3.947 1.674-3.948 4.513 0 2.757 1.48 4.722 4.091 4.722 2.391 0 3.945-1.845 3.943-4.499.004-2.743-1.475-4.736-4.086-4.736m9.091.065h-.744c-2.065 0-2.954 1.162-2.953 3.219l-.001 5.833h.432c.469 0 .758-.197.758-.898v-4.618c0-1.914.391-2.402 2.011-2.402h.498c.639 0 1.317.081 1.735.199l.002-.357c-.002-.54-.262-.976-1.738-.976m3.66.066c-.459 0-.786.263-.786.884v8.089h.575c.313 0 .641-.251.639-.606v-8.367m5.301 8.01c-2.077 0-2.757-1.793-2.757-3.404 0-2.364 1.098-3.655 2.968-3.655 1.632 0 2.73 1.358 2.73 3.455 0 2.468-.903 3.603-2.94 3.603zm-.967-8.01c-1.88.528-2.976 2.377-2.976 4.381-.004 2.692 1.305 4.725 4.154 4.725 2.378 0 3.918-1.78 3.918-4.499.003-2.467-1.489-4.197-3.148-4.381 1.047-.369 2.247-.488 3.398-.541l-.002-.41c.002-.316-.287-.539-.586-.539-1.373 0-3.466.578-4.757 1.265m6.359 8.972h.418c.576 0 .787-.237.787-.949v-3.867c0-2.23.731-3.167 2.39-3.167 1.686 0 2.312.912 2.312 3.062v4.921h.456c.5 0 .748-.288.746-.884l.002-3.933c-.003-2.73-1.256-4.287-3.594-4.287-2.353 0-3.517 1.531-3.517 4.183m12.839-4.118h-1.096c-2.223 0-3.228 1.293-3.228 3.735v1.622a11.37 11.37 0 0 0 .303 2.427c.206.872.534 1.253 1.122 1.253h4.638l.002-.488c-.002-.316-.197-.62-.865-.62h-3.684c-.184-.726-.313-1.794-.313-2.733h3.854l.002-.381c-.002-.357-.238-.647-.77-.647H70.33v-.658c0-1.808.666-2.415 2.427-2.415h.682a6.17 6.17 0 0 1 1.674.251l-.002-.345c0-.62-.211-1.001-1.661-1.001M23.786 1.299h-.967c-2.677 0-3.829 1.507-3.829 4.175v7.567h.557c.614 0 .988-.259.986-1.164V5.886c.002-2.484.508-3.116 2.607-3.116h.646c.829 0 1.713.103 2.254.257l.002-.463c0-.7-.34-1.265-2.256-1.265m4.175.085c-.458 0-.782.263-.779.882v8.056h.571c.313 0 .637-.249.637-.604V1.384m5.219-.065h-.741c-2.057 0-2.942 1.157-2.944 3.207l.002 5.811h.43c.467 0 .753-.197.753-.893V4.841c.003-1.907.393-2.391 2.006-2.391h.496c.636 0 1.314.077 1.73.197v-.356c0-.538-.263-.972-1.732-.972m6.176 0h-.743c-2.056 0-2.94 1.157-2.94 3.207v5.811h.428c.469 0 .756-.197.756-.893V4.841c0-1.907.389-2.391 2.002-2.391h.496c.639 0 1.316.077 1.734.197v-.356c.001-.538-.263-.972-1.733-.972"/><path d="M46.696 1.319h-1.093c-2.211 0-3.214 1.289-3.214 3.722l.003 1.614a11.37 11.37 0 0 0 .3 2.418c.206.87.529 1.25 1.117 1.25h4.62v-.486c0-.316-.194-.616-.858-.616h-3.669c-.185-.723-.318-1.789-.314-2.723h3.838v-.381c0-.355-.233-.644-.767-.644h-3.075v-.657c0-1.801.666-2.407 2.424-2.407h.676c.665 0 1.249.132 1.664.251v-.344c.004-.616-.205-.997-1.652-.997M3.619 9.298h-.507a6.46 6.46 0 0 1-1.095-.12l.085-5.651c.014-.821.45-1.16 1.271-1.16h.483c1.841 0 2.89 1.37 2.859 3.373-.036 2.412-1.217 3.558-3.097 3.558zm.386-8.013H3.21c-1.503 0-2.285.766-2.3 1.91l-.107 6.92c.493.13 1.406.263 1.978.263h1.11c2.14 0 3.981-1.754 4.023-4.455.041-2.779-1.585-4.638-3.909-4.638"/><path d="M12.981 1.284h-1.096c-2.217 0-3.243 1.291-3.279 3.728l-.025 1.623c-.014.764.116 1.778.263 2.424.195.87.513 1.251 1.101 1.251h4.633l.007-.486c.005-.318-.187-.621-.852-.621h-3.68c-.172-.724-.284-1.79-.272-2.726h3.85l.007-.383c.005-.355-.226-.647-.76-.647h-3.08l.01-.657c.027-1.806.704-2.41 2.463-2.41h.678a6.09 6.09 0 0 1 1.667.249l.005-.343c.012-.621-.19-1.002-1.64-1.002m50.046.199c-.253 0-.444.161-.444.578l.002 4.391-.758-.409c-.235-.127-.433 0-.479.161l-.075.288.772.45c.311.179.564.316.838.316a.4.4 0 0 0 .391-.398l-.003-5.377m2.456 5.172c-.68 0-.993-.398-.993-.924.003-.604.376-.972 1.044-.972.661 0 .979.343.979.929 0 .568-.357.966-1.03.966zm-.01-2.547c-.671 0-1.044-.441-1.044-.994 0-.611.423-1.001 1.095-1.001.743 0 1.054.429 1.056.966-.002.56-.321 1.028-1.107 1.028h0zm.006-2.711c-1.139 0-1.734.749-1.734 1.641.003.57.308 1.155.981 1.375-.646.239-.913.645-.911 1.233-.002.949.617 1.698 1.71 1.698.965 0 1.662-.628 1.661-1.579 0-.747-.342-1.112-.94-1.291.642-.179 1.013-.841 1.013-1.325 0-.909-.542-1.752-1.78-1.752m5.032 4.027L69.754 3.19a3.7 3.7 0 0 1-.289-1.366l.002-.342h-.275c-.235 0-.399.146-.399.525 0 .451.17 1.013.348 1.396l1.022 2.19c.165.348.306.68.357.951h-2.681v.249c0 .261.121.465.422.465h2.525c.33 0 .44-.161.44-.433-.003-.221-.187-.772-.471-1.402m2.586-4.025c-.872 0-1.416.51-1.414 1.061l-.002.263h.046c.29-.39.741-.61 1.416-.61.697 0 1.11.331 1.11 1.13 0 .781-.384 1.071-1.265 1.071a4.1 4.1 0 0 1-1.246-.239l.002 2.386c0 .577.229.798.646.798h2.325v-.256c0-.288-.148-.457-.447-.457h-1.911V4.864c.185.041.607.118.846.118 1.118 0 1.732-.645 1.732-1.665-.001-1.196-.689-1.919-1.838-1.919"/></g><path d="M31.385 49.305l5.874 26.492c12.454.829 23.969 4.063 23.969 4.063l-3.479-15.839c-2.087-9.482-26.374-14.761-26.364-14.716" fill="#2c3792"/><g class="O"><path d="M57.424 78.35l.297-1.639 1.805.175-1.674-1.418.072-1.756-1.331.76-1.774-1.301.858 1.912-1.176.913 1.873.474 1.05 1.88m-9.332-4.688l.311-1.576 1.839.323-1.696-1.521.083-1.699-1.358.639-1.791-1.378.857 1.914-1.191.834 1.89.563 1.057 1.9m-7.85-7.888l.318-1.564 1.837.326-1.694-1.516.085-1.687-1.358.637-1.783-1.349.853 1.893-1.19.851 1.883.529 1.049 1.88m-4.259-8.881l.311-1.574 1.832.294-1.688-1.488.086-1.69-1.353.664-1.776-1.31.85 1.876-1.183.887 1.876.479 1.045 1.862"/></g><path d="M37.684 77.956l5.086 23.08s9.476.41 24.274 5.352l-5.292-24.159s-13.667-4.094-24.068-4.273" fill="#7b7979"/><g class="O"><use xlink:href="#D" x="40.082" y="80.284"/><use xlink:href="#E" x="39.757" y="78.73"/><use xlink:href="#F" x="39.486" y="79.508"/><use xlink:href="#G" x="40.355" y="79.508"/><use xlink:href="#F" x="41.258" y="86.032"/><use xlink:href="#H" x="40.932" y="84.479"/><path d="M41.62 86.228l-.175.616.432.616.177-.616"/><use xlink:href="#D" x="41.53" y="85.256"/><path d="M43.489 92.754l-.175.616.433.615.177-.615"/><use xlink:href="#H" x="42.205" y="90.228"/><use xlink:href="#I" x="41.934" y="91.005"/><use xlink:href="#F" x="42.803" y="91.005"/><use xlink:href="#G" x="43.86" y="97.53"/><path d="M44.493 96.948l-.927-.461 1.18 1.677.481-1.677m-1.006 1.239l-.177.618.435.615.175-.615m.436-.618l-.177.618.435.615.177-.615"/><use xlink:href="#G" x="48.216" y="97.778"/><use xlink:href="#J" x="47.89" y="96.225"/><use xlink:href="#K" x="47.62" y="97.003"/><use xlink:href="#G" x="48.488" y="97.003"/><path d="M54.145 99.734l-.175.616.432.616.177-.616"/><use xlink:href="#J" x="52.862" y="97.208"/><use xlink:href="#I" x="52.589" y="97.986"/><use xlink:href="#K" x="53.459" y="97.986"/><path d="M59.108 100.842l-.177.618.435.615.175-.615"/><use xlink:href="#E" x="57.825" y="98.317"/><path d="M58.511 100.067l-.177.616.435.616.173-.616"/><use xlink:href="#F" x="58.422" y="99.095"/><path d="M63.43 102.054l-.177.616.433.615.177-.615m-.758-2.17l-.928-.461 1.181 1.675.481-1.675"/><use xlink:href="#K" x="61.875" y="100.305"/><use xlink:href="#F" x="62.744" y="100.305"/><use xlink:href="#K" x="61.314" y="95.407"/><use xlink:href="#L" x="60.988" y="93.854"/><use xlink:href="#F" x="60.716" y="94.631"/><use xlink:href="#K" x="61.586" y="94.631"/><use xlink:href="#K" x="60.041" y="89.677"/><path d="M60.672 89.095l-.928-.463 1.183 1.679.479-1.679m-1.005 1.24l-.175.616.432.618.177-.618m.435-.616l-.177.616.433.618.177-.618m-1.911-5.577l-.175.616.432.616.178-.616"/><use xlink:href="#E" x="58.508" y="82.385"/><use xlink:href="#K" x="58.237" y="83.163"/><use xlink:href="#D" x="59.105" y="83.163"/><use xlink:href="#I" x="54.344" y="82.518"/><use xlink:href="#L" x="54.019" y="80.965"/><use xlink:href="#D" x="53.746" y="81.742"/><use xlink:href="#K" x="54.616" y="81.742"/><use xlink:href="#K" x="49.363" y="81.439"/><use xlink:href="#E" x="49.036" y="79.885"/><path d="M49.721 81.635l-.173.616.432.616.177-.616"/><use xlink:href="#F" x="49.634" y="80.663"/><use xlink:href="#F" x="44.45" y="80.615"/><use xlink:href="#L" x="44.125" y="79.062"/><use xlink:href="#K" x="43.853" y="79.84"/><use xlink:href="#F" x="44.722" y="79.84"/><path d="M47.191 86.407l-4.232 4.132 10.122 9.74 4.225-4.164-10.115-9.708"/></g></g><path d="M47.191 86.407l-4.232 4.132 10.122 9.74 4.225-4.164-10.115-9.708z" class="S T U"/><g transform="translate(47.058 82.23)"><path d="M4.357 0L.133 4.176l10.115 9.707 4.161-4.455L4.357 0" class="O P"/><path d="M4.357 0L.133 4.176l10.115 9.707 4.161-4.455L4.357 0z" class="S T U"/></g><g transform="translate(46.927 83.453)"><path d="M4.357 0C3.754 1.651 2.36 2.769.422 3.117l9.734 9.347c1.927-.395 3.299-1.614 3.887-3.34L4.357 0" class="O P"/><path d="M4.357 0C3.754 1.651 2.36 2.769.422 3.117l9.734 9.347c1.927-.395 3.299-1.614 3.887-3.34L4.357 0z" class="S T U"/></g><g transform="translate(44.19 85.996)"><path d="M0 4.406C1.674 3.8 2.811 2.454 3.158.576l9.736 9.345c-.338 1.911-1.469 3.296-3.148 3.879L0 4.406" class="O P"/><path d="M0 4.406C1.674 3.8 2.811 2.454 3.158.576l9.736 9.345c-.338 1.911-1.469 3.296-3.148 3.879L0 4.406z" class="S T U"/></g><g class="P"><path d="M41.623 106.371c-7.875-.867-15.365-.891-23.007.606l-4.754-21.78c6.855-2.077 14.582-2.827 22.557-2.259l5.205 23.433" fill="#bf1b2c"/><path d="M33.541 88.448c-1.732-1.456-3.574-2.081-4.115-1.396s.425 2.42 2.157 3.874 3.574 2.081 4.115 1.397-.423-2.42-2.157-3.876zm-10.737-1.395c-.814-.685-2.407-.06-3.557 1.396s-1.421 3.189-.607 3.876 2.408.058 3.559-1.397 1.419-3.189.605-3.874zm14.371 6.509c-.792 1.001-3.245.307-5.643-1.535l-2.876 3.639 4.589 3.855.347-.441-.897-.754 1.475-1.868 2.325 1.953-.5.632-.275-.232-.646.817.974.819.646-.819-.275-.232.5-.632 2.323 1.953-1.477 1.868-.896-.754-.348.439 1.395 1.174-.653.826-9.26-7.781-6.148 7.781-.982-.826.926-1.174-.525-.439-.595.754-2.223-1.868 1.543-1.953.751.632-.182.232.972.819.646-.819-.972-.817-.184.232-.751-.632 1.542-1.953 2.223 1.868-.595.754.525.441 3.046-3.855-4.333-3.639c-1.659 1.842-3.836 2.536-5.026 1.535-1.142-.958-.988-3.148.275-5.133a1.32 1.32 0 0 1-.216-.146c-.442-.372-.563-.973-.27-1.344s.891-.371 1.331 0a1.26 1.26 0 0 1 .182.189c1.63-1.675 3.68-2.274 4.822-1.315 1.19 1.001.971 3.339-.444 5.388l4.331 3.639 2.878-3.639c-2.235-2.05-3.389-4.388-2.599-5.388.758-.96 3.046-.36 5.347 1.315.025-.067.061-.13.105-.189.294-.371.889-.371 1.331 0s.563.972.269 1.344c-.046.057-.099.105-.158.146 2.057 1.984 3.087 4.175 2.33 5.133" class="O"/><g fill="#f68712"><path d="M10.17 68.46c-1.071-4.863 3.653-9.616 9.005-11.515 5.293-2.166 11.028-2.746 10.994-2.901l5.842 26.702"/><path d="M30.167 54.045l5.844 26.702c-7.384-.544-17.927.577-22.642 2.36l-3.2-14.646c-1.071-4.863 3.654-9.616 9.005-11.515 5.293-2.166 11.027-2.747 10.993-2.901"/></g></g><g transform="translate(9.672 53.958)"><mask id="O" class="O"><use xlink:href="#C"/></mask><g mask="url(#O)"><g transform="translate(-.958 .972)"><g class="O P"><path d="M12.042 22.363c-.778-.316-2.004.407-3.177.723.364-.947 2.708-1.323 3.177-.723M9.411 13.8c-.219.922-.104 1.38-.289 1.864-2.407-.446-4.622-1.29-5.628-1.967-.609-.407-1.696-1.504-1.047-2.144 1.253 1.32 1.431.082.94-.53.513-.11 1.12.525 1.601 1.159.476.627 1.139.022 1.367-.094.576-1.025 1.905.611.982.551.389-.172-.416-.905-.541-.328.751.52 1.435 1.567 2.614 1.49"/></g><path d="M9.411 13.8c-.219.922-.104 1.38-.289 1.864-2.407-.446-4.622-1.29-5.628-1.967-.609-.407-1.696-1.504-1.047-2.144 1.253 1.32 1.431.082.94-.53.513-.11 1.12.525 1.601 1.159.476.627 1.139.022 1.367-.094.576-1.025 1.905.611.982.551.389-.172-.416-.905-.541-.328.751.52 1.435 1.567 2.614 1.49z" class="Q R"/><g transform="translate(.362 .968)"><path d="M8.499 4.406c.464.233.405-.822-.197-.594.046.575-.155.903-.517 1.135 1.256 1.451 2.128 2.446 4.941 2.776-1.696.53-2.475.968-3.167 2.338-1.149-.012-1.446-1.631-1.893-1.617-1.229.093-1.95-.285-2.619-1.135-.408-.251-.529-.125-.484.101.041.213.246.453.525.318-.318.355-.71-.156-.736-.283-.039-.203.056-.639.51-.393-.593-.917-.62-1.96.778-1.65-1.429.403.602 2.735 1.378 1.596C5.942 5.18 4.363 2.234 3.204 2.224c.337 1.632-1.746.901-1.22.215-.014.958 1.54.194.185-.328C1.222 1.88.573 1.307.641.356h.93c.178.383.571.652.974.652a.7.7 0 0 0 .719-.652h2.24c.092.467.231 1.988 1.477 3.617.406-.086 1.158-.069.651-2.177.296.625.484 1.128.586 1.535 1.241.015.971 1.842.28 1.075" class="O P"/><path d="M8.499 4.406c.464.233.405-.822-.197-.594.046.575-.155.903-.517 1.135 1.256 1.451 2.128 2.446 4.941 2.776-1.696.53-2.475.968-3.167 2.338-1.149-.012-1.446-1.631-1.893-1.617-1.229.093-1.95-.285-2.619-1.135-.408-.251-.529-.125-.484.101.041.213.246.453.525.318-.318.355-.71-.156-.736-.283-.039-.203.056-.639.51-.393-.593-.917-.62-1.96.778-1.65-1.429.403.602 2.735 1.378 1.596C5.942 5.18 4.363 2.234 3.204 2.224c.337 1.632-1.746.901-1.22.215-.014.958 1.54.194.185-.328C1.222 1.88.573 1.307.641.356h.93c.178.383.571.652.974.652a.7.7 0 0 0 .719-.652h2.24c.092.467.231 1.988 1.477 3.617.406-.086 1.158-.069.651-2.177.296.625.484 1.128.586 1.535 1.241.015.971 1.842.28 1.075z" class="Q R"/></g><g transform="translate(17.413 9.093)"><path d="M7.757 11.272c.243.426.425.927.563 1.639.326 1.705-.102 3.062-1.905 3.062-1.032 0-2.029-.254-2.896-.879-.238 1.093-2.097.031-1.234-.379-.306.457 1.156.915.603-.167-.84-.865-1.504-2.18-1.87-4.079-.425-2.211 2.118-3.761 1.664-6.127C2.37 2.728 1.558 1.98.497 1.448.591 1.163.781.766.84.239c2.137 1.016 2.534 2.019 2.947 3.91.712-.683 1.659.697.77.874.483-.385-.605-1.236-.608.026l-.01-.005c.156 2.317-2.371 3.698-1.904 6.123.491 2.558 2.357 3.682 3.432 3.682s.063-1.667-.085-2.443c-.029-.149-.037-.311-.024-.479.573 1.128 1.474 1.818 1.642 2.444-.136-1.22-.875-2.269-1.465-3.253a6.24 6.24 0 0 1 .838-1.541l.874.972c-.163.757-.282 1.566-.036 2.465-.056-.484.311-1.008.546-1.742" class="O P"/><path d="M7.757 11.272c.243.426.425.927.563 1.639.326 1.705-.102 3.062-1.905 3.062-1.032 0-2.029-.254-2.896-.879-.238 1.093-2.097.031-1.234-.379-.306.457 1.156.915.603-.167-.84-.865-1.504-2.18-1.87-4.079-.425-2.211 2.118-3.761 1.664-6.127C2.37 2.728 1.558 1.98.497 1.448.591 1.163.781.766.84.239c2.137 1.016 2.534 2.019 2.947 3.91.712-.683 1.659.697.77.874.483-.385-.605-1.236-.608.026l-.01-.005c.156 2.317-2.371 3.698-1.904 6.123.491 2.558 2.357 3.682 3.432 3.682s.063-1.667-.085-2.443c-.029-.149-.037-.311-.024-.479.573 1.128 1.474 1.818 1.642 2.444-.136-1.22-.875-2.269-1.465-3.253a6.24 6.24 0 0 1 .838-1.541l.874.972c-.163.757-.282 1.566-.036 2.465-.056-.484.311-1.008.546-1.742z" class="Q R"/></g><g transform="translate(10.088 13.488)"><path d="M2.657 10.3c.801.287 1.606.467 2.385.427l-1.254-.245c-.046-.786-.836-.855-.855-.151l-.275-.031zM6.878.1s-.7.766-.981 1.622c.168 1.195 1.164 2.565 1.718 4.767l-.712 1.174c.45-.3.767-.951.767-.951s-.197 1.126-.999 1.641c.666-.338 1.156-.803 1.156-.803s-.376.757-1.356 1.286c.841-.215 1.44-.589 1.44-.589s-.726.843-2.075 1.311c1.344-.091 2.121-.695 2.121-.695s-1.008 1.533-2.437 1.96c1.008-.282 1.883-.802 2.466-1.392a5.55 5.55 0 0 1-.085.796c1.55.381.61 2.283.042 1.238.496.419.778-.865-.177-.668-.112.362-.252.64-.382.807-.365.455-1.042.433-2.206.433-.755 0-1.489.033-2.057-.448a9.3 9.3 0 0 1-1.039-1.063c-.558-.257-.756-.304-1.411-.479-.019-.048-.07-.63.076-.803.598.213 1.735.436 1.786-.282.078-1.145-1.506-1.059-1.684-.963 0 0-.133-.019-.342-.077.005-.173 0-.798.512-.657.235.065.758-.064.767-.065-.02-.47-.287-.91-.088-1.318C1.67 3.258 3.38.807 3.38.807s-.262 1.159.039 3.049c.076-.07-.08.077 0 0 .18-1.96.947-3.313.947-3.313s-.168 1.027-.088 2.446c.032-.034-.029.034 0 0C4.616 1.269 5.491.295 5.491.295s-.253.735-.442 1.826c.056-.064-.054.065 0 0C5.62.894 6.878.1 6.878.1" class="O P"/><path d="M2.657 10.3c.801.287 1.606.467 2.385.427l-1.254-.245c-.046-.786-.836-.855-.855-.151l-.275-.031zM6.878.1s-.7.766-.981 1.622c.168 1.195 1.164 2.565 1.718 4.767l-.712 1.174c.45-.3.767-.951.767-.951s-.197 1.126-.999 1.641c.666-.338 1.156-.803 1.156-.803s-.376.757-1.356 1.286c.841-.215 1.44-.589 1.44-.589s-.726.843-2.075 1.311c1.344-.091 2.121-.695 2.121-.695s-1.008 1.533-2.437 1.96c1.008-.282 1.883-.802 2.466-1.392a5.55 5.55 0 0 1-.085.796c1.55.381.61 2.283.042 1.238.496.419.778-.865-.177-.668-.112.362-.252.64-.382.807-.365.455-1.042.433-2.206.433-.755 0-1.489.033-2.057-.448a9.3 9.3 0 0 1-1.039-1.063c-.558-.257-.756-.304-1.411-.479-.019-.048-.07-.63.076-.803.598.213 1.735.436 1.786-.282.078-1.145-1.506-1.059-1.684-.963 0 0-.133-.019-.342-.077.005-.173 0-.798.512-.657.235.065.758-.064.767-.065-.02-.47-.287-.91-.088-1.318C1.67 3.258 3.38.807 3.38.807s-.262 1.159.039 3.049c.076-.07-.08.077 0 0 .18-1.96.947-3.313.947-3.313s-.168 1.027-.088 2.446c.032-.034-.029.034 0 0C4.616 1.269 5.491.295 5.491.295s-.253.735-.442 1.826c.056-.064-.054.065 0 0C5.62.894 6.878.1 6.878.1z" class="Q R"/></g><g transform="translate(3.411 .605)"><path d="M15.513 6.866c.986.494.763-1.983-.71-.987.228 2.398-.673 5.196-2.458 7.671l.083-.23.646-1.602-1.129 1.257c-.024.027-.377.426-.717 1.174l.087-.623.406-2.043-.93 1.78c-.025.046-.388.754-.644 1.926.027-.851.175-1.368.178-1.378l.53-1.789-1.035 1.483c-.066.093-1.377 2-1.667 4.279-2.427 1.789-4.674 2.451-6.065 2.451-.666 0-2.087-.336-2.046-1.318 1.673.439 1.025-.8.309-1.059.28-.414 1.086-.208 1.807.077s.785-.697.869-.93c.423.079.795.124 1.122.125-.374-.603.07-1.5.588-.8-.51-.323-.588.848.127.699.945-.309 1.319-1.39 1.367-3.904.202.891.544 1.607 1.122 1.967-.926-1.644-.925-3.445-.778-3.819.323-.819.894-1.94 2.388-2.558-.364.584-.08 2.056.309 2.76-.195-1.372-.287-1.85.201-3.016 1.28-.436 3.442-1.488 3.459-2.393-.649.101-1.062-.451-1.191-.994-.161-.233-.269-.209-.309-.091-.039.11.01.282.211.299-.286.076-.365-.278-.342-.343.037-.108.218-.282.41-.038-.075-.599.212-1.093.93-.549-.928-.216-.464 1.397.294 1.154-.019-.989-.148-2.039-.467-2.515-1.016-.98-2.227 1.657-3.622-.486 1.489 1.217 1.572-.196 1.183-.276-1.491-.309-1.978-.242-1.888-1.509h.328c.18.383.571.652.976.652a.7.7 0 0 0 .719-.652h3.581c.148.772.636 2.249.921 4.06 2.767-.276 2.252 3.644.85 2.087" class="O P"/><path d="M15.513 6.866c.986.494.763-1.983-.71-.987.228 2.398-.673 5.196-2.458 7.671l.083-.23.646-1.602-1.129 1.257c-.024.027-.377.426-.717 1.174l.087-.623.406-2.043-.93 1.78c-.025.046-.388.754-.644 1.926.027-.851.175-1.368.178-1.378l.53-1.789-1.035 1.483c-.066.093-1.377 2-1.667 4.279-2.427 1.789-4.674 2.451-6.065 2.451-.666 0-2.087-.336-2.046-1.318 1.673.439 1.025-.8.309-1.059.28-.414 1.086-.208 1.807.077s.785-.697.869-.93c.423.079.795.124 1.122.125-.374-.603.07-1.5.588-.8-.51-.323-.588.848.127.699.945-.309 1.319-1.39 1.367-3.904.202.891.544 1.607 1.122 1.967-.926-1.644-.925-3.445-.778-3.819.323-.819.894-1.94 2.388-2.558-.364.584-.08 2.056.309 2.76-.195-1.372-.287-1.85.201-3.016 1.28-.436 3.442-1.488 3.459-2.393-.649.101-1.062-.451-1.191-.994-.161-.233-.269-.209-.309-.091-.039.11.01.282.211.299-.286.076-.365-.278-.342-.343.037-.108.218-.282.41-.038-.075-.599.212-1.093.93-.549-.928-.216-.464 1.397.294 1.154-.019-.989-.148-2.039-.467-2.515-1.016-.98-2.227 1.657-3.622-.486 1.489 1.217 1.572-.196 1.183-.276-1.491-.309-1.978-.242-1.888-1.509h.328c.18.383.571.652.976.652a.7.7 0 0 0 .719-.652h3.581c.148.772.636 2.249.921 4.06 2.767-.276 2.252 3.644.85 2.087z" class="Q R"/></g></g></g></g></g></g></g></g></g></svg>