<svg xmlns="http://www.w3.org/2000/svg" width="73" height="72" fill-rule="evenodd" xmlns:v="https://vecta.io/nano"><path d="M19.144 53.855c-9.763-9.763-9.763-25.592 0-35.355s25.592-9.763 35.355 0 9.763 25.592 0 35.355-25.592 9.763-35.355 0zm3.536-3.536c7.81 7.81 20.474 7.81 28.284 0s7.81-20.474 0-28.284-20.474-7.81-28.284 0-7.81 20.474 0 28.284z" fill="#fff"/><path d="M19.144 18.5c9.177-9.177 23.715-9.728 33.535-1.652l.312.261a25.3 25.3 0 0 1 1.214 1.101l.295.29h0l-1.544 1.543-1.998 1.986c-7.802-7.802-20.46-7.804-28.271 0l-1.998-1.986z" fill="#5a63a3"/></svg>