<svg xmlns="http://www.w3.org/2000/svg" xmlns:xlink="http://www.w3.org/1999/xlink" width="60" height="60" xmlns:v="https://vecta.io/nano"><defs><radialGradient cx="26.5626266%" cy="107.702106%" fx="26.5626266%" fy="107.702106%" r="99.107386%" gradientTransform="translate(0.265626,1.077021),scale(0.999727,1.000000),rotate(-90.000000),translate(-0.265626,-1.077021)" id="A"><stop stop-color="#fd5" offset="0%"/><stop stop-color="#fd5" offset="10%"/><stop stop-color="#ff543e" offset="50%"/><stop stop-color="#c837ab" offset="100%"/></radialGradient><radialGradient cx="-16.7505274%" cy="7.20383154%" fx="-16.7505274%" fy="7.20383154%" r="44.3018739%" gradientTransform="translate(-0.167505,0.072038),scale(0.999727,1.000000),rotate(78.677638),translate(0.167505,-0.072038)" id="B"><stop stop-color="#3771c8" offset="0%"/><stop stop-color="#3771c8" offset="12.8%"/><stop stop-color="#60f" stop-opacity="0" offset="100%"/></radialGradient><path id="C" d="M29.787 0L13.013.071c-2.551.212-4.139.614-5.868 1.475-1.333.662-2.384 1.429-3.421 2.504C1.834 6.012.689 8.425.274 11.293c-.202 1.392-.26 1.676-.272 8.788v9.676l.073 16.759c.206 2.482.595 4.044 1.42 5.753 1.576 3.27 4.585 5.725 8.13 6.641 1.227.316 2.583.49 4.324.573.737.032 8.253.055 15.774.055l15.76-.046c2.015-.095 3.185-.252 4.479-.586 3.568-.921 6.522-3.339 8.13-6.655.808-1.667 1.218-3.289 1.404-5.641.04-.513.057-8.692.057-16.86l-.059-16.846c-.188-2.391-.598-3.998-1.432-5.698a11.8 11.8 0 0 0-2.549-3.492c-1.97-1.882-4.379-3.027-7.25-3.441C46.873.072 46.596.012 39.478 0h-9.692z"/></defs><use xlink:href="#C" fill="url(#A)"/><use xlink:href="#C" fill="url(#B)"/><path d="M29.773 7.786l-9.065.133c-2.34.107-3.938.478-5.336 1.021-1.446.562-2.673 1.313-3.895 2.535A10.79 10.79 0 0 0 8.94 15.37c-.545 1.398-.916 2.996-1.021 5.336l-.132 9.065.133 9.063c.108 2.34.478 3.938 1.021 5.336a10.77 10.77 0 0 0 2.536 3.895c1.222 1.223 2.448 1.976 3.893 2.537 1.399.544 2.997.914 5.337 1.021l9.064.133 9.063-.133c2.34-.107 3.94-.478 5.339-1.021 1.445-.562 2.67-1.315 3.892-2.537a10.79 10.79 0 0 0 2.537-3.894c.54-1.398.911-2.996 1.021-5.336l.133-9.063-.133-9.065c-.11-2.34-.481-3.938-1.021-5.336-.563-1.446-1.315-2.673-2.537-3.895a10.74 10.74 0 0 0-3.893-2.535c-1.402-.544-3-.914-5.34-1.021l-9.064-.133h.007zm-1.972 3.962h1.972l8.884.126c2.144.098 3.307.456 4.082.757 1.026.398 1.757.875 2.526 1.644a6.82 6.82 0 0 1 1.645 2.528c.301.774.66 1.937.757 4.081l.128 8.881-.128 8.881c-.098 2.144-.456 3.307-.757 4.081-.398 1.026-.876 1.756-1.645 2.525s-1.5 1.246-2.526 1.644c-.774.302-1.938.66-4.082.758l-8.884.128c-5.87 0-6.566-.023-8.884-.128-2.144-.099-3.307-.457-4.082-.758-1.026-.398-1.759-.875-2.528-1.644a6.81 6.81 0 0 1-1.645-2.527c-.301-.774-.66-1.937-.757-4.081l-.126-8.885.126-8.881c.098-2.144.456-3.307.757-4.082a6.81 6.81 0 0 1 1.645-2.528 6.82 6.82 0 0 1 2.528-1.645c.775-.302 1.939-.66 4.082-.758l6.911-.124v.005zm13.707 3.65a2.64 2.64 0 0 0-2.638 2.637 2.64 2.64 0 0 0 2.638 2.638 2.64 2.64 0 0 0 2.638-2.638 2.64 2.64 0 0 0-2.638-2.638h0zm-11.735 3.082c-6.235 0-11.29 5.055-11.29 11.29a11.29 11.29 0 0 0 11.29 11.288 11.29 11.29 0 0 0 11.288-11.288 11.29 11.29 0 0 0-11.289-11.29h0zm0 3.962a7.33 7.33 0 0 1 7.328 7.328 7.33 7.33 0 0 1-7.328 7.328 7.33 7.33 0 0 1-7.328-7.328 7.33 7.33 0 0 1 7.328-7.328z" fill="#fff"/></svg>