<svg xmlns="http://www.w3.org/2000/svg" width="60" height="60" xmlns:v="https://vecta.io/nano"><path d="M0 4.298C0 1.926 1.986 0 4.434 0h51.131C58.015 0 60 1.926 60 4.298v51.405C60 58.076 58.015 60 55.566 60H4.434C1.986 60 0 58.076 0 55.703V4.297v.001z" fill="#069"/><path d="M18.347 49.999V23.01H9.415v26.989h8.933-.001zm-4.464-30.673c3.114 0 5.053-2.072 5.053-4.662C18.878 12.015 16.997 10 13.942 10s-5.054 2.015-5.054 4.663c0 2.59 1.938 4.662 4.936 4.662h.058.001zm9.408 30.673h8.932v-15.07c0-.806.058-1.613.294-2.189.645-1.612 2.115-3.281 4.583-3.281 3.231 0 4.525 2.475 4.525 6.103v14.437h8.931V34.524c0-8.289-4.406-12.147-10.282-12.147-4.818 0-6.934 2.704-8.109 4.546h.059v-3.913h-8.932C23.408 25.543 23.291 50 23.291 50v-.001z" fill="#fff"/></svg>